<svg width="512" height="512" viewBox="0 0 512 512" fill="none" xmlns="http://www.w3.org/2000/svg">
<mask id="mask0_1771_730" style="mask-type:alpha" maskUnits="userSpaceOnUse" x="119" y="25" width="272" height="463">
<path d="M135.381 196.01C135.381 200.271 144.832 205.446 144.832 205.446C140.683 207.539 138.734 209.708 138.734 213.36C138.734 215.318 140.398 217.275 141.942 219.092C143.279 220.666 144.527 222.134 144.527 223.405C144.527 223.957 144.379 225.172 144.172 226.868C143.352 233.599 141.608 247.908 144.527 258.41C147.83 265.663 149.04 266.007 153.057 267.149L153.369 267.237C156.646 268.172 165.49 268.461 174.806 268.765L174.813 268.765L174.818 268.766C177.632 268.858 180.399 268.938 183.247 269.064C185.899 269.617 188.883 270.491 192.168 271.719C231.298 286.339 299.241 316.603 376.304 487.325C363.58 455.141 263.838 188.556 390.388 25.9707C303.703 67.6564 255.544 122.593 255.405 202.343C255.293 239.066 261.312 267.761 264.335 277.518C222.041 194.644 183.013 106.232 169.144 25.9707C158.766 42.0982 156.255 52.6193 154.283 69.3835C154.537 77.9955 156.406 84.479 157.92 89.7301C159.628 95.6548 160.884 100.01 158.856 104.084C156.836 108.143 147.254 120.482 138.077 132.299C129.88 142.854 122.007 152.992 120.137 156.439C117.651 161.02 125.237 164.524 131.466 167.401C135.169 169.112 138.393 170.601 138.734 171.963C139.268 174.096 138.035 180.483 136.917 186.278C136.12 190.408 135.381 194.237 135.381 196.01Z" fill="white"/>
</mask>
<g mask="url(#mask0_1771_730)">
<g filter="url(#filter0_f_1771_730)" style="mix-blend-mode:overlay">
<rect x="-48.563" y="-64.3203" width="604.832" height="604.832" rx="114.725" fill="#9875C1"/>
</g>
<g filter="url(#filter1_f_1771_730)" style="mix-blend-mode:lighten">
<rect x="-48.563" y="-64.3203" width="604.832" height="604.832" rx="114.725" fill="#9875C1"/>
</g>
<g opacity="0.5" filter="url(#filter2_f_1771_730)" style="mix-blend-mode:soft-light">
<rect x="-48.563" y="-64.3203" width="604.832" height="604.832" rx="114.725" fill="#9875C1"/>
</g>
</g>
<mask id="mask1_1771_730" style="mask-type:alpha" maskUnits="userSpaceOnUse" x="119" y="25" width="272" height="463">
<path d="M135.381 196.01C135.381 200.271 144.832 205.446 144.832 205.446C140.683 207.539 138.734 209.708 138.734 213.36C138.734 215.318 140.398 217.275 141.942 219.092C143.279 220.666 144.527 222.134 144.527 223.405C144.527 223.957 144.379 225.172 144.172 226.868C143.352 233.599 141.608 247.908 144.527 258.41C147.83 265.663 149.04 266.007 153.057 267.149L153.369 267.237C156.646 268.172 165.49 268.461 174.806 268.765L174.813 268.765L174.818 268.766C177.632 268.858 180.399 268.938 183.247 269.064C185.899 269.617 188.883 270.491 192.168 271.719C231.298 286.339 299.241 316.603 376.304 487.325C363.58 455.141 263.838 188.556 390.388 25.9707C303.703 67.6564 255.544 122.593 255.405 202.343C255.293 239.066 261.312 267.761 264.335 277.518C222.041 194.644 183.013 106.232 169.144 25.9707C158.766 42.0982 156.255 52.6193 154.283 69.3835C154.537 77.9955 156.406 84.479 157.92 89.7301C159.628 95.6548 160.884 100.01 158.856 104.084C156.836 108.143 147.254 120.482 138.077 132.299C129.88 142.854 122.007 152.992 120.137 156.439C117.651 161.02 125.237 164.524 131.466 167.401C135.169 169.112 138.393 170.601 138.734 171.963C139.268 174.096 138.035 180.483 136.917 186.278C136.12 190.408 135.381 194.237 135.381 196.01Z" fill="white"/>
</mask>
<g mask="url(#mask1_1771_730)">
<g filter="url(#filter3_f_1771_730)">
<rect x="-48.563" y="-64.3203" width="604.832" height="604.832" rx="114.725" fill="#9875C1"/>
</g>
<g filter="url(#filter4_f_1771_730)">
<rect x="-48.563" y="-64.3203" width="604.832" height="604.832" rx="114.725" fill="#9875C1"/>
</g>
<g opacity="0.5" filter="url(#filter5_f_1771_730)">
<rect x="-47.3042" y="-46.377" width="604.832" height="604.832" rx="114.725" fill="#9875C1"/>
</g>
</g>
<defs>
<filter id="filter0_f_1771_730" x="-106.843" y="-122.6" width="721.392" height="721.392" filterUnits="userSpaceOnUse" color-interpolation-filters="sRGB">
<feFlood flood-opacity="0" result="BackgroundImageFix"/>
<feBlend mode="normal" in="SourceGraphic" in2="BackgroundImageFix" result="shape"/>
<feGaussianBlur stdDeviation="29.1401" result="effect1_foregroundBlur_1771_730"/>
</filter>
<filter id="filter1_f_1771_730" x="-106.843" y="-122.6" width="721.392" height="721.392" filterUnits="userSpaceOnUse" color-interpolation-filters="sRGB">
<feFlood flood-opacity="0" result="BackgroundImageFix"/>
<feBlend mode="normal" in="SourceGraphic" in2="BackgroundImageFix" result="shape"/>
<feGaussianBlur stdDeviation="29.1401" result="effect1_foregroundBlur_1771_730"/>
</filter>
<filter id="filter2_f_1771_730" x="-106.843" y="-122.6" width="721.392" height="721.392" filterUnits="userSpaceOnUse" color-interpolation-filters="sRGB">
<feFlood flood-opacity="0" result="BackgroundImageFix"/>
<feBlend mode="normal" in="SourceGraphic" in2="BackgroundImageFix" result="shape"/>
<feGaussianBlur stdDeviation="29.1401" result="effect1_foregroundBlur_1771_730"/>
</filter>
<filter id="filter3_f_1771_730" x="-106.843" y="-122.6" width="721.392" height="721.392" filterUnits="userSpaceOnUse" color-interpolation-filters="sRGB">
<feFlood flood-opacity="0" result="BackgroundImageFix"/>
<feBlend mode="normal" in="SourceGraphic" in2="BackgroundImageFix" result="shape"/>
<feGaussianBlur stdDeviation="29.1401" result="effect1_foregroundBlur_1771_730"/>
</filter>
<filter id="filter4_f_1771_730" x="-106.843" y="-122.6" width="721.392" height="721.392" filterUnits="userSpaceOnUse" color-interpolation-filters="sRGB">
<feFlood flood-opacity="0" result="BackgroundImageFix"/>
<feBlend mode="normal" in="SourceGraphic" in2="BackgroundImageFix" result="shape"/>
<feGaussianBlur stdDeviation="29.1401" result="effect1_foregroundBlur_1771_730"/>
</filter>
<filter id="filter5_f_1771_730" x="-105.584" y="-104.657" width="721.392" height="721.392" filterUnits="userSpaceOnUse" color-interpolation-filters="sRGB">
<feFlood flood-opacity="0" result="BackgroundImageFix"/>
<feBlend mode="normal" in="SourceGraphic" in2="BackgroundImageFix" result="shape"/>
<feGaussianBlur stdDeviation="29.1401" result="effect1_foregroundBlur_1771_730"/>
</filter>
</defs>
</svg>
