<svg width="504" height="600" viewBox="0 0 504 600" fill="none" xmlns="http://www.w3.org/2000/svg">
<path d="M351.4 2.80002C299.533 11.0667 243.133 39.8667 205 77.2C165.933 115.333 145.267 153.333 135.267 205.333C132.2 220.667 133 264.533 136.467 283.067C145.4 330 157.667 354.4 199.933 409.333C221.8 437.733 231.933 448.533 248.067 460.533C259.8 469.333 279.533 482.533 286.067 486C292.2 489.2 309.4 502.933 316.333 510.133C325 519.2 329.8 525.467 342.467 544.667C353.533 561.467 358.333 567.333 361 567.333C361.933 567.2 364.467 564.4 366.6 560.933C370.467 554.933 411.533 492.8 416.333 486C429.933 466.267 453.667 434.933 457.933 430.667C460.867 427.733 463.4 424.267 463.4 422.933C463.4 418.933 447.533 404.4 435.8 397.6C415.8 386.133 402.733 381.867 353.4 370.667C303.933 359.467 275.8 350.933 265 343.867C263.133 342.667 256.067 341.333 246.467 340.533C232.867 339.467 230.467 338.933 226.467 335.867C219.933 330.933 218.867 327.333 219 310C219.133 299.067 218.6 293.6 217.267 290.933C215.667 287.867 215.533 286.4 216.867 282.8C219.567 277 223 278.833 215 274.333C207 269.833 210.5 268.833 213.4 258.8C216.3 248.767 215.5 248.833 208 242.833C200.5 236.833 195.806 233.999 195.806 230.314C195.806 226.629 204.927 219.352 218.867 201.333C232.806 183.314 234.467 181.733 230.6 163.333C228.067 150.933 228.733 142.933 234.067 128.533C245.933 95.8667 265.533 77.3333 299 66.8C337 54.9333 372.067 61.8667 391.933 85.2C404.067 99.3333 413.133 121.467 414.867 141.067C415.267 145.6 415.8 151.333 416.067 153.733C416.6 160 414.467 185.467 411.933 200.667C406.333 235.333 397.967 256 378.5 282.8C374.5 288.267 359.267 306.4 346.467 319.067C333.667 331.867 323.533 342.533 323.933 343.067C324.733 343.733 368.5 354 370.5 354C371.7 354 403.667 317.067 417 300.4C472.2 231.733 506.13 155 503 94.6667C502.109 77.5 494.2 48.8 476.067 30.6667C466.333 20.9334 461.933 17.6 452.6 12.9333C434.067 3.73335 418.967 4.42738e-05 392.733 5.25015e-10C366.5 -4.42727e-05 351.4 2.80002 351.4 2.80002Z" fill="#9875C1"/>
<path d="M190.927 456.286C176.261 465.086 133.861 487.486 112.261 498.019C84.1273 511.619 70.6606 517.219 53.9939 522.153C31.4606 528.953 31.0606 529.219 23.0606 546.419C19.1939 554.686 13.7273 566.419 10.9273 572.686C8.2606 578.953 4.39393 587.22 2.6606 591.086C0.793933 594.953 -0.406067 598.553 0.127266 598.953C3.59393 602.419 57.9939 580.82 103.594 558.02C134.527 542.553 177.994 516.819 202.394 499.486C208.127 495.353 217.061 489.086 222.261 485.353C227.327 481.753 232.5 478.5 231.594 477.886C230.688 477.272 202.621 451.706 201.061 451.353C199.5 451 195.327 453.619 190.927 456.286Z" fill="#9875C1"/>
</svg>
